<svg xmlns="http://www.w3.org/2000/svg" width="3000" height="1000" viewBox="0 0 793.75 264.583" xmlns:v="https://vecta.io/nano"><style><![CDATA[.B{stroke-opacity:.392}.C{stroke-width:.265}]]></style><g fill="none" stroke="#142a3d" class="B"><path d="M118.12 36.737v39.998m1.906-39.998v39.998m1.904-39.998v39.998m1.905-39.998v39.998m1.905-39.998v39.998m1.905-39.998v39.998m1.905-39.998v39.998m1.904-39.998v39.998m1.906-39.998v39.998m1.903-39.998v39.998m1.905-39.998v39.998m1.904-39.998v39.998m1.905-39.998v39.998m1.905-39.998v39.998m1.904-39.998v39.998m1.904-39.998v39.998m1.906-39.998v39.998m1.904-39.998v39.998m1.905-39.998v39.998m1.895-39.998v39.998m1.914-39.998v39.998m1.906-39.998v39.998m1.904-39.998v39.998m1.904-39.998v39.998m1.905-39.998v39.998m1.905-39.998v39.998m1.904-39.998v39.998m1.905-39.998v39.998m1.903-39.998v39.998m1.906-39.998v39.998m1.904-39.998v39.998m1.905-39.998v39.998M57.173 36.737v39.998m1.904-39.998v39.998m1.905-39.998v39.998m1.905-39.998v39.998M64.8 36.737v39.998m1.906-39.998v39.998M68.6 36.737v39.998m1.905-39.998v39.998M72.4 36.737v39.998m1.914-39.998v39.998m1.906-39.998v39.998m1.904-39.998v39.998m1.904-39.998v39.998m1.905-39.998v39.998m1.905-39.998v39.998m1.904-39.998v39.998m1.905-39.998v39.998m1.905-39.998v39.998m1.904-39.998v39.998m1.904-39.998v39.998m1.906-39.998v39.998m1.904-39.998v39.998m1.905-39.998v39.998m1.905-39.998v39.998m1.904-39.998v39.998m1.906-39.998v39.998m1.903-39.998v39.998m1.905-39.998v39.998m1.905-39.998v39.998m1.904-39.998v39.998m1.905-39.998v39.998m1.905-39.998v39.998M240.02 36.737v39.998m1.903-39.998v39.998m1.905-39.998v39.998m1.905-39.998v39.998m1.904-39.998v39.998m1.905-39.998v39.998m1.905-39.998v39.998m1.903-39.998v39.998m1.906-39.998v39.998m1.904-39.998v39.998m1.905-39.998v39.998m1.905-39.998v39.998m1.905-39.998v39.998m1.905-39.998v39.998m1.904-39.998v39.998m1.906-39.998v39.998m1.903-39.998v39.998m1.905-39.998v39.998m1.904-39.998v39.998m1.905-39.998v39.998m1.905-39.998v39.998m1.904-39.998v39.998m1.904-39.998v39.998m1.906-39.998v39.998m1.904-39.998v39.998m1.905-39.998v39.998m1.905-39.998v39.998m1.904-39.998v39.998m1.906-39.998v39.998m1.904-39.998v39.998m1.904-39.998v39.998m1.905-39.998v39.998M179.07 36.737v39.998m1.905-39.998v39.998m1.905-39.998v39.998m1.904-39.998v39.998m1.906-39.998v39.998m1.903-39.998v39.998m1.905-39.998v39.998m1.905-39.998v39.998m1.904-39.998v39.998m1.905-39.998v39.998m1.905-39.998v39.998m1.903-39.998v39.998m1.906-39.998v39.998m1.904-39.998v39.998m1.905-39.998v39.998m1.905-39.998v39.998m1.904-39.998v39.998m1.906-39.998v39.998m1.904-39.998v39.998m1.904-39.998v39.998m1.905-39.998v39.998m1.905-39.998v39.998m1.904-39.998v39.998m1.905-39.998v39.998m1.905-39.998v39.998m1.904-39.998v39.998m1.904-39.998v39.998m1.906-39.998v39.998m1.904-39.998v39.998m1.905-39.998v39.998m1.905-39.998v39.998m1.904-39.998v39.998" class="C"/><path d="M10.502 66.563v94.493m1.905-94.493v94.493M14.3 66.563v94.493m1.906-94.493v94.493m1.904-94.493v94.493m1.905-94.493v94.493m1.905-94.493v94.493m1.905-94.493v94.493m1.905-94.493v94.493m1.904-94.493v94.493m1.904-94.493v94.493m1.905-94.493v94.493m1.905-94.493v94.493m1.904-94.493v94.493m1.905-94.493v94.493m1.905-94.493v94.493m1.904-94.493v94.493m1.904-94.493v94.493m1.906-94.493v94.493M46.7 66.563v94.493m1.895-94.493v94.493M50.5 66.563v94.493m1.904-94.493v94.493M54.3 66.563v94.493m1.904-94.493v94.493m1.904-94.493v94.493m1.905-94.493v94.493m1.904-94.493v94.493m1.905-94.493v94.493m1.905-94.493v94.493m1.903-94.493v94.493m1.906-94.493v94.493M-50.447 66.563v94.493m1.905-94.493v94.493m1.905-94.493v94.493m1.904-94.493v94.493m1.905-94.493v94.493m1.904-94.493v94.493m1.904-94.493v94.493m1.906-94.493v94.493m1.914-94.493v94.493m1.895-94.493v94.493m1.905-94.493v94.493m1.904-94.493v94.493m1.906-94.493v94.493m1.904-94.493v94.493m1.904-94.493v94.493m1.905-94.493v94.493m1.905-94.493v94.493m1.904-94.493v94.493m1.905-94.493v94.493m1.905-94.493v94.493m1.904-94.493v94.493m1.904-94.493v94.493m1.906-94.493v94.493m1.904-94.493v94.493m1.905-94.493v94.493m1.905-94.493v94.493m1.904-94.493v94.493M.98 66.563v94.493m1.903-94.493v94.493m1.905-94.493v94.493m1.905-94.493v94.493m1.904-94.493v94.493M132.4 66.563v94.493m1.904-94.493v94.493m1.906-94.493v94.493m1.903-94.493v94.493m1.905-94.493v94.493m1.905-94.493v94.493m1.904-94.493v94.493m1.905-94.493v94.493m1.905-94.493v94.493m1.903-94.493v94.493m1.906-94.493v94.493m1.904-94.493v94.493m1.905-94.493v94.493m1.905-94.493v94.493m1.905-94.493v94.493m1.905-94.493v94.493m1.904-94.493v94.493m1.904-94.493v94.493m1.905-94.493v94.493m1.905-94.493v94.493m1.904-94.493v94.493m1.905-94.493v94.493m1.905-94.493v94.493m1.904-94.493v94.493m1.904-94.493v94.493m1.906-94.493v94.493m1.904-94.493v94.493m1.905-94.493v94.493m1.905-94.493v94.493m1.904-94.493v94.493m1.906-94.493v94.493m1.904-94.493v94.493M71.45 66.563v94.493m1.905-94.493v94.493m1.905-94.493v94.493m1.905-94.493v94.493m1.905-94.493v94.493m1.904-94.493v94.493m1.906-94.493v94.493m1.903-94.493v94.493m1.905-94.493v94.493m1.905-94.493v94.493m1.904-94.493v94.493m1.905-94.493v94.493m1.905-94.493v94.493M96.2 66.563v94.493m1.906-94.493v94.493m1.904-94.493v94.493m1.905-94.493v94.493m1.905-94.493v94.493m1.904-94.493v94.493m1.906-94.493v94.493m1.904-94.493v94.493m1.904-94.493v94.493m1.905-94.493v94.493m1.905-94.493v94.493m1.904-94.493v94.493m1.905-94.493v94.493m1.905-94.493v94.493m1.904-94.493v94.493m1.904-94.493v94.493m1.906-94.493v94.493m1.914-94.493v94.493m1.895-94.493v94.493" stroke-width=".252"/><g class="C"><path d="M26.627-108.765V17.4m10.48-126.165V17.4m10.48-126.165V17.4m10.48-126.165V17.4m10.48-126.165V17.4m10.48-126.165V17.4m10.48-126.165V17.4m10.48-126.165V17.4m10.48-126.165V17.4m10.48-126.165V17.4m10.48-126.165V17.4m10.48-126.165V17.4m10.48-126.165V17.4m10.48-126.165V17.4m10.48-126.165V17.4m10.48-126.165V17.4m10.48-126.165V17.4m10.48-126.165V17.4m10.48-126.165V17.4m10.48-126.165V17.4m10.48-126.165V17.4m10.48-126.165V17.4m10.48-126.165V17.4m10.48-126.165V17.4m10.478-126.165V17.4m10.48-126.165V17.4m10.48-126.165V17.4m10.48-126.165V17.4m10.48-126.165V17.4m10.48-126.165V17.4m10.48-126.165V17.4"/><circle cx="425.244" cy="5.352" r="60.039"/></g><path d="M406.053 90.672v30.076m5.7-30.076v30.076m5.69-30.076v30.076m5.688-30.076v30.076m5.68-30.076v30.076m5.7-30.076v30.076m5.688-30.076v30.076m5.7-30.076v30.076m5.69-30.076v30.076m5.69-30.076v30.076m5.69-30.076v30.076m5.69-30.076v30.076m5.7-30.076v30.076m5.69-30.076v30.076m5.69-30.076v30.076m5.688-30.076v30.076m5.7-30.076v30.076m5.7-30.076v30.076m5.7-30.076v30.076m5.688-30.076v30.076m5.69-30.076v30.076m5.69-30.076v30.076m5.69-30.076v30.076m5.7-30.076v30.076m5.69-30.076v30.076m5.69-30.076v30.076m5.69-30.076v30.076m5.688-30.076v30.076m5.7-30.076v30.076m5.7-30.076v30.076m5.7-30.076v30.076m5.688-30.076v30.076M224 90.672v30.076m5.7-30.076v30.076m5.688-30.076v30.076m5.69-30.076v30.076m5.69-30.076v30.076m5.69-30.076v30.076m5.7-30.076v30.076m5.69-30.076v30.076m5.69-30.076v30.076m5.69-30.076v30.076m5.688-30.076v30.076m5.7-30.076v30.076m5.7-30.076v30.076m5.7-30.076v30.076m5.688-30.076v30.076m5.69-30.076v30.076m5.7-30.076v30.076m5.69-30.076v30.076m5.69-30.076v30.076m5.69-30.076v30.076m5.69-30.076v30.076m5.69-30.076v30.076m5.7-30.076v30.076m5.688-30.076v30.076m5.7-30.076v30.076m5.7-30.076v30.076m5.688-30.076v30.076m5.7-30.076v30.076m5.69-30.076v30.076m5.69-30.076v30.076m5.69-30.076v30.076m5.69-30.076v30.076M770.16 90.672v30.076m5.7-30.076v30.076m5.7-30.076v30.076m5.7-30.076v30.076m5.688-30.076v30.076m5.69-30.076v30.076m5.69-30.076v30.076m5.69-30.076v30.076m5.69-30.076v30.076m5.7-30.076v30.076m5.69-30.076v30.076m5.69-30.076v30.076m5.688-30.076v30.076m5.7-30.076v30.076m5.68-30.076v30.076m5.7-30.076v30.076m5.688-30.076v30.076m5.69-30.076v30.076m5.69-30.076v30.076m5.69-30.076v30.076m5.7-30.076v30.076m5.69-30.076v30.076m5.69-30.076v30.076m5.69-30.076v30.076m5.688-30.076v30.076m5.7-30.076v30.076m5.7-30.076v30.076m5.7-30.076v30.076m5.688-30.076v30.076m5.69-30.076v30.076m5.7-30.076v30.076m5.69-30.076v30.076m-358.42-30.076v30.076m5.69-30.076v30.076m5.7-30.076v30.076m5.69-30.076v30.076m5.69-30.076v30.076m5.69-30.076v30.076m5.69-30.076v30.076m5.688-30.076v30.076m5.7-30.076v30.076m5.68-30.076v30.076m5.7-30.076v30.076m5.688-30.076v30.076m5.69-30.076v30.076m5.7-30.076v30.076m5.69-30.076v30.076m5.69-30.076v30.076m5.69-30.076v30.076m5.69-30.076v30.076m5.69-30.076v30.076m5.7-30.076v30.076m5.688-30.076v30.076m5.7-30.076v30.076m5.7-30.076v30.076m5.688-30.076v30.076m5.7-30.076v30.076m5.69-30.076v30.076m5.69-30.076v30.076m5.69-30.076v30.076m5.69-30.076v30.076m5.69-30.076v30.076m5.7-30.076v30.076m5.69-30.076v30.076" stroke-width=".229"/></g></svg>